<svg xmlns="http://www.w3.org/2000/svg" width="21.5" height="21.5" viewBox="0 0 21.5 21.5"><path d="M18.351,0H3.149A3.153,3.153,0,0,0,0,3.149v15.2A3.153,3.153,0,0,0,3.149,21.5h15.2A3.153,3.153,0,0,0,21.5,18.351V3.149A3.153,3.153,0,0,0,18.351,0ZM10.792,16.377a5.669,5.669,0,1,1,5.669-5.669A5.675,5.675,0,0,1,10.792,16.377ZM17.091,6.3a1.89,1.89,0,1,1,1.89-1.89A1.892,1.892,0,0,1,17.091,6.3Zm0,0" fill="#009a44"/><path d="M392.879,90a.879.879,0,1,0,.879.879A.879.879,0,0,0,392.879,90Zm0,0" transform="translate(-375.944 -86.314)" fill="#009a44"/><path d="M158.152,150a6.152,6.152,0,1,0,6.152,6.152A6.16,6.16,0,0,0,158.152,150Zm0,0" transform="translate(-147.372 -145.433)" fill="#009a44"/></svg>