<svg xmlns="http://www.w3.org/2000/svg" width="21.5" height="21.5" viewBox="0 0 21.5 21.5"><path d="M8.021,21.5a15.179,15.179,0,0,1-2.849-.276,11.984,11.984,0,0,1-3.9-1.733L0,18.64l1.379-.554a37.381,37.381,0,0,0,3.56-1.57A5.594,5.594,0,0,1,2.5,13.069l-.321-1.19.263.049a5.79,5.79,0,0,1-.6-.9,6.478,6.478,0,0,1-.769-3.295l.06-1.039.509.241a6.7,6.7,0,0,1-.461-1.579,7.185,7.185,0,0,1,.524-4.046L2.154.313l.593.87a10.623,10.623,0,0,0,7.07,4.863A6.234,6.234,0,0,1,10.074,3.3a4.975,4.975,0,0,1,1.71-2.4A4.423,4.423,0,0,1,14.765.012a4.359,4.359,0,0,1,2.927,1.475,8.646,8.646,0,0,0,1.071-.437c.235-.108.5-.231.835-.371L20.826.162l-.8,2.8c.053-.005.107-.01.164-.013L21.5,2.872l-.775,1.295c-.044.074-.056.1-.072.124-.062.115-.14.258-1.2,1.994a2.852,2.852,0,0,0-.375,1.595,18.2,18.2,0,0,1-.674,6.066,11.1,11.1,0,0,1-2.358,4.269,9.8,9.8,0,0,1-4.938,2.917,12.545,12.545,0,0,1-3.084.37Zm0,0" transform="translate(0 0)" fill="#009a44"/></svg>